<svg width="121" height="121" viewBox="0 0 121 121" fill="none" xmlns="http://www.w3.org/2000/svg">
<path d="M31.865 78.16L31.27 35.745C29.5133 36.3683 27.785 37.615 26.085 39.485L28.55 26.905C30.1933 27.075 31.2417 27.3017 31.695 27.585C31.9217 27.6983 33.4517 27.755 36.285 27.755C44.3883 27.755 52.01 27.33 59.15 26.48L62.295 39.995C61.445 38.5217 60.2267 37.3033 58.64 36.34C57.0533 35.32 55.41 34.8383 53.71 34.895L40.62 35.15C40.5633 35.4333 40.535 35.6883 40.535 35.915L40.705 53.17L51.415 53.085C52.8883 52.8583 54.22 51.2433 55.41 48.24L55.155 64.305C54.1917 61.1883 52.4917 59.63 50.055 59.63L40.79 59.715L40.96 78.585L53.71 78.84C55.41 78.8967 57.0533 78.4433 58.64 77.48C60.2267 76.46 61.445 75.2133 62.295 73.74L59.15 87.255C52.01 86.405 44.3883 85.98 36.285 85.98C33.4517 85.98 31.9217 86.0367 31.695 86.15C31.2417 86.4333 30.1933 86.66 28.55 86.83L26.085 74.25C28.0117 76.3467 29.9383 77.65 31.865 78.16ZM91.8245 80.88C89.1045 80.7667 87.1212 80.7383 85.8745 80.795C84.6845 80.8517 83.3812 80.88 81.9645 80.88C82.9279 80.4267 83.9195 79.775 84.9395 78.925C84.9962 78.8117 84.7979 78.3583 84.3445 77.565L78.9895 68.215L72.6145 79.265C72.1612 80.0583 71.9629 80.5117 72.0195 80.625C72.0762 80.965 73.0679 81.645 74.9945 82.665C73.5779 82.665 72.2745 82.6367 71.0845 82.58C69.8379 82.5233 67.8545 82.5517 65.1345 82.665C63.7745 82.7217 61.1962 82.75 57.3995 82.75C61.8762 81.73 64.6245 80.4267 65.6445 78.84C68.8745 73.74 72.2462 68.3 75.7595 62.52L68.8745 50.365C68.1945 49.175 67.2029 48.41 65.8995 48.07L64.6245 46.795C63.8879 46.0583 62.7829 45.4067 61.3095 44.84C62.5562 44.8967 64.8512 45.4067 68.1945 46.37C71.3679 47.3333 73.2945 47.7867 73.9745 47.73C75.0512 49.77 76.7229 52.8867 78.9895 57.08C80.2929 54.7567 82.3612 51.13 85.1945 46.2C85.8745 46.2 90.0962 46.0583 97.8595 45.775L93.1845 47.56C91.0879 48.3533 89.0762 50.45 87.1495 53.85L82.2195 62.52C84.8262 66.8267 87.8579 71.6717 91.3145 77.055C92.3345 78.6417 95.0829 79.945 99.5595 80.965C95.7629 80.965 93.1845 80.9367 91.8245 80.88Z" fill="#E8D9AF"/>
<circle cx="60.5" cy="60.5" r="58" stroke="#E8D9AF" stroke-width="5"/>
</svg>
