<svg width="121" height="121" viewBox="0 0 121 121" fill="none" xmlns="http://www.w3.org/2000/svg">
<path d="M46.77 81.815C47.0533 83.515 48.385 84.8467 50.765 85.81L33 85.555C36.1167 84.5917 37.675 82.8917 37.675 80.455L37.25 34.64C37.0233 32.6567 35.975 31.24 34.105 30.39H48.3C46.9967 31.41 46.345 32.6 46.345 33.96L46.77 81.815ZM86.6456 72.55C85.059 73.91 81.9706 76.4317 77.3806 80.115C71.3173 84.9883 67.294 87.425 65.3106 87.425C65.0273 87.425 64.829 87.34 64.7156 87.17L54.0906 74.42C52.6173 71.2467 51.8806 69.15 51.8806 68.13C51.8806 66.8833 52.5606 65.835 53.9206 64.985L56.8956 63.115L63.3556 61.585C62.5623 62.3217 61.769 63.03 60.9756 63.71C60.1256 64.6167 59.644 65.5517 59.5306 66.515C59.9273 67.9317 61.4573 70.3967 64.1206 73.91C66.954 77.65 68.8523 79.3783 69.8156 79.095C70.779 77.395 72.6206 75.0433 75.3406 72.04L74.6606 72.21C75.0573 71.9267 75.2556 71.5017 75.2556 70.935C75.2556 69.6317 71.1473 64.2767 62.9306 54.87C54.714 45.4067 50.6056 40.3067 50.6056 39.57C50.6056 39.1167 50.7756 38.7767 51.1156 38.55L52.3906 37.02L61.7406 29.54C67.8606 24.6667 71.8556 22.23 73.7256 22.23C74.009 22.23 74.2356 22.315 74.4056 22.485L85.0306 35.235C86.504 38.4083 87.2406 40.505 87.2406 41.525C87.2406 42.7717 86.5323 43.82 85.1156 44.67L76.7006 46.795L76.6156 46.2C77.239 45.5767 77.9756 45.01 78.8256 44.5C79.109 44.3867 79.3073 43.905 79.4206 43.055C78.9673 41.5817 76.984 39.3433 73.4706 36.34C69.9573 33.28 67.549 31.8917 66.2456 32.175C65.509 32.345 64.7156 33.11 63.8656 34.47C63.0156 35.7733 62.5906 36.8217 62.5906 37.615C62.5906 38.295 62.8456 38.975 63.3556 39.655C66.869 44.1883 72.4223 50.5067 80.0156 58.61C85.5123 64.4467 88.2606 68.2717 88.2606 70.085C88.2606 70.7083 88.0056 71.2467 87.4956 71.7L86.5606 71.87L86.6456 72.55Z" fill="#E8D9AF"/>
<circle cx="60.5" cy="60.5" r="58" stroke="#E8D9AF" stroke-width="5"/>
</svg>
